<mxfile host="drawio-plugin" modified="2022-06-01T20:29:17.499Z" agent="5.0 (Windows NT 6.2; Win64; x64) AppleWebKit/537.36 (KHTML, like Gecko) Chrome/97.0.4692.45 Safari/537.36" etag="yDM77w5IByEN8phcVAg4" version="15.5.4" type="embed"><diagram id="sJZclP78aZAgtWre4Mi2" name="Page-1"><mxGraphModel dx="2449" dy="874" grid="1" gridSize="10" guides="1" tooltips="1" connect="1" arrows="1" fold="1" page="1" pageScale="1" pageWidth="827" pageHeight="1169" math="0" shadow="0"><root><mxCell id="0"/><mxCell id="1" parent="0"/><mxCell id="DJ9BKZ0n7cj3qJC3ey5y-64" value="" style="edgeStyle=entityRelationEdgeStyle;fontSize=12;html=1;endArrow=ERoneToMany;startArrow=ERmandOne;rounded=0;" parent="1" source="39" target="36" edge="1"><mxGeometry width="100" height="100" relative="1" as="geometry"><mxPoint x="150" y="280" as="sourcePoint"/><mxPoint x="260" y="170" as="targetPoint"/></mxGeometry></mxCell><mxCell id="28" value="Product" style="swimlane;fontStyle=0;childLayout=stackLayout;horizontal=1;startSize=26;horizontalStack=0;resizeParent=1;resizeParentMax=0;resizeLast=0;collapsible=1;marginBottom=0;align=center;fontSize=14;" vertex="1" parent="1"><mxGeometry x="-50" y="400" width="250" height="266" as="geometry"/></mxCell><mxCell id="29" value="id: long pk" style="text;strokeColor=none;fillColor=none;spacingLeft=4;spacingRight=4;overflow=hidden;rotatable=0;points=[[0,0.5],[1,0.5]];portConstraint=eastwest;fontSize=12;" vertex="1" parent="28"><mxGeometry y="26" width="250" height="30" as="geometry"/></mxCell><mxCell id="30" value="name: varchar" style="text;strokeColor=none;fillColor=none;spacingLeft=4;spacingRight=4;overflow=hidden;rotatable=0;points=[[0,0.5],[1,0.5]];portConstraint=eastwest;fontSize=12;" vertex="1" parent="28"><mxGeometry y="56" width="250" height="30" as="geometry"/></mxCell><mxCell id="31" value="price: numeric" style="text;strokeColor=none;fillColor=none;spacingLeft=4;spacingRight=4;overflow=hidden;rotatable=0;points=[[0,0.5],[1,0.5]];portConstraint=eastwest;fontSize=12;" vertex="1" parent="28"><mxGeometry y="86" width="250" height="30" as="geometry"/></mxCell><mxCell id="32" value="price_without_discount: numeric" style="text;strokeColor=none;fillColor=none;spacingLeft=4;spacingRight=4;overflow=hidden;rotatable=0;points=[[0,0.5],[1,0.5]];portConstraint=eastwest;fontSize=12;" vertex="1" parent="28"><mxGeometry y="116" width="250" height="30" as="geometry"/></mxCell><mxCell id="33" value="amount: long" style="text;strokeColor=none;fillColor=none;spacingLeft=4;spacingRight=4;overflow=hidden;rotatable=0;points=[[0,0.5],[1,0.5]];portConstraint=eastwest;fontSize=12;" vertex="1" parent="28"><mxGeometry y="146" width="250" height="30" as="geometry"/></mxCell><mxCell id="34" value="picture: varchar" style="text;strokeColor=none;fillColor=none;spacingLeft=4;spacingRight=4;overflow=hidden;rotatable=0;points=[[0,0.5],[1,0.5]];portConstraint=eastwest;fontSize=12;" vertex="1" parent="28"><mxGeometry y="176" width="250" height="30" as="geometry"/></mxCell><mxCell id="71" value="rating: double" style="text;strokeColor=none;fillColor=none;spacingLeft=4;spacingRight=4;overflow=hidden;rotatable=0;points=[[0,0.5],[1,0.5]];portConstraint=eastwest;fontSize=12;" vertex="1" parent="28"><mxGeometry y="206" width="250" height="30" as="geometry"/></mxCell><mxCell id="36" value="product_type_id: long fk" style="text;strokeColor=none;fillColor=none;spacingLeft=4;spacingRight=4;overflow=hidden;rotatable=0;points=[[0,0.5],[1,0.5]];portConstraint=eastwest;fontSize=12;" vertex="1" parent="28"><mxGeometry y="236" width="250" height="30" as="geometry"/></mxCell><mxCell id="38" value="Product_type" style="swimlane;fontStyle=0;childLayout=stackLayout;horizontal=1;startSize=26;horizontalStack=0;resizeParent=1;resizeParentMax=0;resizeLast=0;collapsible=1;marginBottom=0;align=center;fontSize=14;" vertex="1" parent="1"><mxGeometry x="300" y="620" width="250" height="116" as="geometry"/></mxCell><mxCell id="39" value="id: long pk" style="text;strokeColor=none;fillColor=none;spacingLeft=4;spacingRight=4;overflow=hidden;rotatable=0;points=[[0,0.5],[1,0.5]];portConstraint=eastwest;fontSize=12;" vertex="1" parent="38"><mxGeometry y="26" width="250" height="30" as="geometry"/></mxCell><mxCell id="40" value="name_category: varchar" style="text;strokeColor=none;fillColor=none;spacingLeft=4;spacingRight=4;overflow=hidden;rotatable=0;points=[[0,0.5],[1,0.5]];portConstraint=eastwest;fontSize=12;" vertex="1" parent="38"><mxGeometry y="56" width="250" height="30" as="geometry"/></mxCell><mxCell id="41" value="picture: varchar" style="text;strokeColor=none;fillColor=none;spacingLeft=4;spacingRight=4;overflow=hidden;rotatable=0;points=[[0,0.5],[1,0.5]];portConstraint=eastwest;fontSize=12;" vertex="1" parent="38"><mxGeometry y="86" width="250" height="30" as="geometry"/></mxCell><mxCell id="46" value="Product_picture" style="swimlane;fontStyle=0;childLayout=stackLayout;horizontal=1;startSize=26;horizontalStack=0;resizeParent=1;resizeParentMax=0;resizeLast=0;collapsible=1;marginBottom=0;align=center;fontSize=14;" vertex="1" parent="1"><mxGeometry x="-50" y="750" width="250" height="116" as="geometry"/></mxCell><mxCell id="47" value="id: long pk" style="text;strokeColor=none;fillColor=none;spacingLeft=4;spacingRight=4;overflow=hidden;rotatable=0;points=[[0,0.5],[1,0.5]];portConstraint=eastwest;fontSize=12;" vertex="1" parent="46"><mxGeometry y="26" width="250" height="30" as="geometry"/></mxCell><mxCell id="52" value="picture: varchar" style="text;strokeColor=none;fillColor=none;spacingLeft=4;spacingRight=4;overflow=hidden;rotatable=0;points=[[0,0.5],[1,0.5]];portConstraint=eastwest;fontSize=12;" vertex="1" parent="46"><mxGeometry y="56" width="250" height="30" as="geometry"/></mxCell><mxCell id="73" value="product_id: long fk" style="text;strokeColor=none;fillColor=none;spacingLeft=4;spacingRight=4;overflow=hidden;rotatable=0;points=[[0,0.5],[1,0.5]];portConstraint=eastwest;fontSize=12;" vertex="1" parent="46"><mxGeometry y="86" width="250" height="30" as="geometry"/></mxCell><mxCell id="54" value="Product_feature" style="swimlane;fontStyle=0;childLayout=stackLayout;horizontal=1;startSize=26;horizontalStack=0;resizeParent=1;resizeParentMax=0;resizeLast=0;collapsible=1;marginBottom=0;align=center;fontSize=14;" vertex="1" parent="1"><mxGeometry x="650" y="450" width="250" height="116" as="geometry"/></mxCell><mxCell id="55" value="id: long pk" style="text;strokeColor=none;fillColor=none;spacingLeft=4;spacingRight=4;overflow=hidden;rotatable=0;points=[[0,0.5],[1,0.5]];portConstraint=eastwest;fontSize=12;" vertex="1" parent="54"><mxGeometry y="26" width="250" height="30" as="geometry"/></mxCell><mxCell id="56" value="name: varchar" style="text;strokeColor=none;fillColor=none;spacingLeft=4;spacingRight=4;overflow=hidden;rotatable=0;points=[[0,0.5],[1,0.5]];portConstraint=eastwest;fontSize=12;" vertex="1" parent="54"><mxGeometry y="56" width="250" height="30" as="geometry"/></mxCell><mxCell id="72" value="product_type_id: long fk" style="text;strokeColor=none;fillColor=none;spacingLeft=4;spacingRight=4;overflow=hidden;rotatable=0;points=[[0,0.5],[1,0.5]];portConstraint=eastwest;fontSize=12;" vertex="1" parent="54"><mxGeometry y="86" width="250" height="30" as="geometry"/></mxCell><mxCell id="62" value="value_product_feature" style="swimlane;fontStyle=0;childLayout=stackLayout;horizontal=1;startSize=26;horizontalStack=0;resizeParent=1;resizeParentMax=0;resizeLast=0;collapsible=1;marginBottom=0;align=center;fontSize=14;" vertex="1" parent="1"><mxGeometry x="290" y="270" width="250" height="146" as="geometry"/></mxCell><mxCell id="63" value="id: long pk" style="text;strokeColor=none;fillColor=none;spacingLeft=4;spacingRight=4;overflow=hidden;rotatable=0;points=[[0,0.5],[1,0.5]];portConstraint=eastwest;fontSize=12;" vertex="1" parent="62"><mxGeometry y="26" width="250" height="30" as="geometry"/></mxCell><mxCell id="64" value="product_id: long fk" style="text;strokeColor=none;fillColor=none;spacingLeft=4;spacingRight=4;overflow=hidden;rotatable=0;points=[[0,0.5],[1,0.5]];portConstraint=eastwest;fontSize=12;" vertex="1" parent="62"><mxGeometry y="56" width="250" height="30" as="geometry"/></mxCell><mxCell id="70" value="product_feature_id: long fk" style="text;strokeColor=none;fillColor=none;spacingLeft=4;spacingRight=4;overflow=hidden;rotatable=0;points=[[0,0.5],[1,0.5]];portConstraint=eastwest;fontSize=12;" vertex="1" parent="62"><mxGeometry y="86" width="250" height="30" as="geometry"/></mxCell><mxCell id="65" value="value: varchar" style="text;strokeColor=none;fillColor=none;spacingLeft=4;spacingRight=4;overflow=hidden;rotatable=0;points=[[0,0.5],[1,0.5]];portConstraint=eastwest;fontSize=12;" vertex="1" parent="62"><mxGeometry y="116" width="250" height="30" as="geometry"/></mxCell><mxCell id="74" value="" style="edgeStyle=entityRelationEdgeStyle;fontSize=12;html=1;endArrow=ERoneToMany;startArrow=ERmandOne;rounded=0;" edge="1" parent="1" source="39" target="72"><mxGeometry width="100" height="100" relative="1" as="geometry"><mxPoint x="310" y="331" as="sourcePoint"/><mxPoint x="220" y="593" as="targetPoint"/></mxGeometry></mxCell><mxCell id="75" value="" style="edgeStyle=entityRelationEdgeStyle;fontSize=12;html=1;endArrow=ERoneToMany;startArrow=ERmandOne;rounded=0;" edge="1" parent="1" source="55" target="70"><mxGeometry width="100" height="100" relative="1" as="geometry"><mxPoint x="200" y="660" as="sourcePoint"/><mxPoint x="140" y="922" as="targetPoint"/></mxGeometry></mxCell><mxCell id="76" value="" style="edgeStyle=entityRelationEdgeStyle;fontSize=12;html=1;endArrow=ERoneToMany;startArrow=ERmandOne;rounded=0;" edge="1" parent="1" source="29" target="64"><mxGeometry width="100" height="100" relative="1" as="geometry"><mxPoint x="210" y="670" as="sourcePoint"/><mxPoint x="150" y="932" as="targetPoint"/></mxGeometry></mxCell><mxCell id="DJ9BKZ0n7cj3qJC3ey5y-63" value="" style="edgeStyle=orthogonalEdgeStyle;fontSize=12;html=1;endArrow=ERoneToMany;startArrow=ERmandOne;rounded=0;exitX=0;exitY=0.5;exitDx=0;exitDy=0;entryX=0;entryY=0.5;entryDx=0;entryDy=0;" parent="1" source="29" target="73" edge="1"><mxGeometry width="100" height="100" relative="1" as="geometry"><mxPoint x="-90" y="430" as="sourcePoint"/><mxPoint x="-10" y="645" as="targetPoint"/><Array as="points"><mxPoint x="-90" y="441"/><mxPoint x="-90" y="851"/></Array></mxGeometry></mxCell></root></mxGraphModel></diagram></mxfile>